<svg viewBox="0 0 24 24" xmlns="http://www.w3.org/2000/svg" width="24">
  <path transform="translate(0 -2)" fill="white" d="M18.8888889,9.14009662 C18.8888889,8.3290628 18.2313237,7.67149758 17.4202899,7.67149758 C16.609256,7.67149758 15.9516908,8.3290628 15.9516908,9.14009662 C15.9516908,9.40903382 16.0291594,9.65777778 16.1552754,9.87439614 L14.4766667,12.8123285 C14.1805604,12.8137971 13.9051981,12.9033816 13.6757295,13.0553816 L11.5365314,11.9855072 C11.4884348,11.2181643 10.8567536,10.6086957 10.0772947,10.6086957 C9.26626087,10.6086957 8.60869565,11.2662609 8.60869565,12.0772947 C8.60869565,12.2650918 8.64742995,12.4437101 8.71186473,12.6092947 L7.35744928,14.3016715 C7.2856715,14.2915749 7.21462802,14.2801932 7.14009662,14.2801932 C6.3290628,14.2801932 5.67149758,14.9377585 5.67149758,15.7487923 C5.67149758,16.5598261 6.3290628,17.2173913 7.14009662,17.2173913 C7.95113043,17.2173913 8.60869565,16.5598261 8.60869565,15.7487923 C8.60869565,15.5609952 8.56996135,15.3823768 8.505343,15.2167923 L9.85994203,13.5244155 C9.93171981,13.5343285 10.0027633,13.5458937 10.0772947,13.5458937 C10.3763382,13.5458937 10.6531691,13.4555749 10.884657,13.3021063 L13.0238551,14.3719807 C13.0719517,15.1393237 13.7036329,15.7487923 14.4830918,15.7487923 C15.2941256,15.7487923 15.9516908,15.0912271 15.9516908,14.2801932 C15.9516908,14.011256 15.8742222,13.7625121 15.7481063,13.5458937 L17.426715,10.6079614 C18.2348116,10.6044734 18.8888889,9.94892754 18.8888889,9.14009662 L18.8888889,9.14009662 Z M20.3574879,17.9516908 C20.3574879,18.3568406 20.0283382,18.6859903 19.6231884,18.6859903 L4.93719807,18.6859903 C4.53204831,18.6859903 4.20289855,18.3568406 4.20289855,17.9516908 L4.20289855,6.93719807 C4.20289855,6.53204831 4.53204831,6.20289855 4.93719807,6.20289855 L19.6231884,6.20289855 C20.0283382,6.20289855 20.3574879,6.53204831 20.3574879,6.93719807 L20.3574879,17.9516908 Z M19.6231884,4 L4.93719807,4 C3.31513043,4 2,5.31513043 2,6.93719807 L2,17.9516908 C2,19.5737585 3.31513043,20.8888889 4.93719807,20.8888889 L19.6231884,20.8888889 C21.245256,20.8888889 22.5603865,19.5737585 22.5603865,17.9516908 L22.5603865,6.93719807 C22.5603865,5.31513043 21.245256,4 19.6231884,4 L19.6231884,4 Z"></path>
</svg>
