<svg viewBox="0 0 24 24" xmlns="http://www.w3.org/2000/svg" width="22">
  <path fill="#fff" d="M21.0040237,12.3608928 L20.2821902,12.3608928 L20.2821902,13.0827263 L19.5603566,13.0827263 L19.5603566,12.3608928 L18.8385231,12.3608928 L18.8385231,11.6390593 L19.5603566,11.6390593 L19.5603566,10.9172258 L20.2821902,10.9172258 L20.2821902,11.6390593 L21.0040237,11.6390593 L21.0040237,12.3608928 Z M18.2891631,12.3608928 L17.5673296,12.3608928 L17.5673296,13.0827263 L16.8454961,13.0827263 L16.8454961,12.3608928 L16.1172747,12.3608928 L16.1172747,11.6390593 L16.8391082,11.6390593 L16.8391082,10.9172258 L17.5609417,10.9172258 L17.5609417,11.6390593 L18.2891631,11.6390593 L18.2891631,12.3608928 Z M11.7734979,18.5188353 C8.18349408,18.5188353 5.25783263,15.5932377 5.25783263,12.00317 C5.25783263,8.4131662 8.18349408,5.48750475 11.7734979,5.48750475 C14.0923082,5.48750475 16.2514208,6.73314663 17.4140199,8.74533737 L14.5969528,10.3742537 C14.0156533,9.37135227 12.936097,8.74533737 11.7734979,8.74533737 C9.97849598,8.74533737 8.51566525,10.2081681 8.51566525,12.00317 C8.51566525,13.7981719 9.97849598,15.2610026 11.7734979,15.2610026 C12.936097,15.2610026 14.0156533,14.6350516 14.5969528,13.6320863 L17.4140199,15.2610026 C16.2514208,17.2668055 14.0923082,18.5188353 11.7734979,18.5188353 L11.7734979,18.5188353 Z M21.3042553,6.50956988 L21.3042553,6.50956988 C21.1509455,6.24127778 20.9337567,5.99853731 20.703792,5.86439127 L12.6230895,1.20121907 C12.1567723,0.932926975 11.3966114,0.932926975 10.9302941,1.20121907 L2.84959165,5.86439127 C2.38327443,6.13907127 2,6.7970257 2,7.3336099 L2,16.6663422 C2,16.9346982 2.09581861,17.2348659 2.24912838,17.503158 C2.40243815,17.7714501 2.61323908,18.0014148 2.84959165,18.1355608 L10.9302941,22.798733 C11.3966114,23.067089 12.1567723,23.067089 12.6230895,22.798733 L20.703792,18.1355608 C20.9337567,18.0014148 21.1509455,17.7714501 21.3042553,17.503158 C21.4575651,17.2348659 21.5533837,16.9410222 21.5533837,16.6663422 L21.5533837,7.3336099 C21.5469958,7.07170571 21.4511772,6.77786198 21.3042553,6.50956988 L21.3042553,6.50956988 Z" transform="translate(0 -1)"></path>
</svg>
