<svg viewBox="0 0 20 22" xmlns="http://www.w3.org/2000/svg" width="16">
  <path fill="white"
        transform="translate(-2 -2)"
        d="M21.0477193,16.7368421 L21.0477193,19.9691228 C21.0477193,20.6494737 20.1266667,21.3887719 18.5842105,21.9487719 C16.8403509,22.5824561 14.5094737,22.9312281 12.0238596,22.9312281 C9.53824561,22.9312281 7.20736842,22.5824561 5.46350877,21.9487719 C3.92105263,21.3887719 3,20.6494737 3,19.9691228 L3,16.7368421 C3.52070175,17.1642105 4.2354386,17.5449123 5.12701754,17.8691228 C6.97649123,18.5396491 9.42526316,18.9105263 12.0238596,18.9105263 C14.6224561,18.9105263 17.0712281,18.5421053 18.9207018,17.8691228 C19.8147368,17.5449123 20.5294737,17.1642105 21.0477193,16.7368421 Z M21.0477267,11.7336891 L21.0477267,14.9659698 C21.0477267,15.6463207 20.126674,16.3855944 18.5841933,16.9456189 C16.8403337,17.5793032 14.5094811,17.9280751 12.023867,17.9280751 C9.53822842,17.9280751 7.20737579,17.5793032 5.46351614,16.9456189 C3.92106,16.3855944 3.00000737,15.6463207 3.00000737,14.9659698 L3.00000737,11.7336891 C3.52068456,12.1610575 4.23544596,12.5417593 5.12702491,12.8659698 C6.9764986,13.5364961 9.42527053,13.9049172 12.023867,13.9049172 C14.6224389,13.9049172 17.0712354,13.5364961 18.9206846,12.8659698 C19.8122635,12.5417593 20.5294565,12.1610575 21.0477267,11.7336891 Z M21.0477267,6.73052632 L21.0477267,9.96280702 C21.0477267,10.6431579 20.126674,11.3824561 18.5841933,11.9424561 C16.8403337,12.5761404 14.5094811,12.9249123 12.023867,12.9249123 C9.53822842,12.9249123 7.20737579,12.5761404 5.46351614,11.9424561 C3.92106,11.3824561 3.00000737,10.6431579 3.00000737,9.96280702 L3.00000737,6.73052632 C3.09579684,6.81157895 3.20138632,6.8877193 3.31191263,6.96385965 C3.34875474,6.99087719 3.38807754,7.0154386 3.42737579,7.04245614 C3.46913018,7.06947368 3.5133407,7.09894737 3.55752667,7.12596491 C3.57720035,7.13824561 3.59684947,7.15052632 3.6164986,7.16280702 C3.6533407,7.18491228 3.69261439,7.20701754 3.72945649,7.22912281 C3.74421789,7.23894737 3.76141088,7.24631579 3.77614772,7.25614035 C3.8031407,7.27087719 3.83018281,7.28561404 3.85720035,7.30035088 C3.87439333,7.31017544 3.89404246,7.32 3.91123544,7.32982456 C3.93822842,7.3445614 3.96527053,7.35929825 3.99228807,7.37157895 C4.01439333,7.38385965 4.03647404,7.39368421 4.05614772,7.40596491 C4.07088456,7.41333333 4.08807754,7.42315789 4.10281439,7.43052632 C4.12000737,7.43789474 4.13471965,7.44526316 4.15193719,7.45508772 C4.22068456,7.48947368 4.29193719,7.52140351 4.36316526,7.55333333 C4.38033368,7.56070175 4.39755123,7.56807018 4.41228807,7.5754386 C4.45401789,7.59508772 4.49825298,7.61473684 4.54246351,7.63192982 C4.56948105,7.64421053 4.5964986,7.65403509 4.62106,7.66631579 C4.64807754,7.67859649 4.67507053,7.68842105 4.70211263,7.70070175 C4.72913018,7.71298246 4.75614772,7.72280702 4.78316526,7.73508772 C4.80772667,7.74491228 4.83471965,7.75473684 4.85928105,7.7645614 C4.8887793,7.77684211 4.92068456,7.78912281 4.95018281,7.79894737 C5.00664947,7.82105263 5.06316526,7.84315789 5.12211263,7.86280702 C6.9764986,8.53578947 9.42770211,8.90421053 12.023867,8.90421053 C14.6200074,8.90421053 17.0712354,8.53578947 18.9206846,7.86280702 C18.9796565,7.84070175 19.0361477,7.82105263 19.0926144,7.79894737 C19.1245442,7.78666667 19.1540179,7.77684211 19.1835161,7.7645614 C19.2080775,7.75473684 19.2350705,7.74491228 19.2596319,7.73508772 C19.286674,7.72280702 19.313667,7.71298246 19.3407091,7.70070175 L19.3812262,7.68350877 L19.3812262,7.68350877 L19.4217618,7.66631579 C19.4487547,7.65403509 19.4757968,7.64421053 19.5003582,7.63192982 L19.6305337,7.5754386 L19.6305337,7.5754386 C19.6477267,7.56807018 19.6648951,7.56070175 19.6796565,7.55333333 C19.75086,7.52140351 19.8221126,7.48701754 19.89086,7.45508772 C19.9080775,7.4477193 19.9227898,7.44035088 19.9399828,7.43052632 C19.9547442,7.42315789 19.9719126,7.41578947 19.986674,7.40596491 C20.0087547,7.39368421 20.0308846,7.38385965 20.0505091,7.37157895 L20.0910539,7.3497807 L20.0910539,7.3497807 L20.1315618,7.32982456 C20.1512354,7.32 20.1684039,7.31017544 20.1855968,7.30035088 C20.2126389,7.28561404 20.2396565,7.27087719 20.2666495,7.25614035 C20.2838425,7.24631579 20.2986039,7.23894737 20.3133407,7.22912281 C20.3526144,7.20701754 20.3894565,7.18491228 20.4262986,7.16280702 C20.4459723,7.15052632 20.4656214,7.13824561 20.4852705,7.12596491 C20.5294565,7.09894737 20.573667,7.07192982 20.6154214,7.04245614 C20.6547442,7.01789474 20.6915863,6.99087719 20.7308846,6.96385965 C20.8463232,6.89017544 20.9519372,6.81157895 21.0477267,6.73052632 Z M12.023867,2 C14.5094811,2 16.8403337,2.34877193 18.5841933,2.98245614 C20.126674,3.54245614 21.0477267,4.28175439 21.0477267,4.96210526 C21.0477267,5.64245614 20.126674,6.38175439 18.5841933,6.94175439 C16.8403337,7.5754386 14.5094811,7.92421053 12.023867,7.92421053 C9.53822842,7.92421053 7.20737579,7.5754386 5.46351614,6.94175439 C3.92106,6.38175439 3.00000737,5.64245614 3.00000737,4.96210526 C3.00000737,4.28175439 3.92106,3.54245614 5.46351614,2.98245614 C7.20737579,2.34877193 9.53822842,2 12.023867,2 Z"></path>
</svg>
