<svg viewBox="0 0 24 24" xmlns="http://www.w3.org/2000/svg" width="22">
  <path transform="translate(0 -2)" fill="#fff" d="M16.2879401,6.96099622 L16.2879401,5.41518856 C16.2879401,5.04615186 15.8413642,4.86121886 15.580136,5.12203244 L12.8492644,7.85290402 C12.687137,8.01503138 12.687137,8.27750356 12.8492644,8.43921627 L15.580136,11.1700879 C15.8413642,11.4313161 16.2879401,11.2463831 16.2879401,10.8769317 L16.2879401,9.3356852 C18.0161928,9.3564176 19.4156298,10.76705 19.4156298,12.4998639 C19.4156298,14.2459466 17.9950458,15.6665305 16.2489631,15.6665305 C14.5028805,15.6665305 13.0827112,14.2459466 13.0827112,12.4998639 C13.0827112,9.44432297 10.5968965,6.95892298 7.54135559,6.95892298 C4.48622928,6.95892298 2,9.44432297 2,12.4998639 C2,15.5338432 4.45139885,18.0026572 7.4766705,18.0379023 L7.4766705,19.5845393 C7.4766705,19.9539906 7.92324638,20.1389236 8.1844746,19.8776954 L10.9153462,17.1468238 C11.0774735,16.9851111 11.0774735,16.7226389 10.9153462,16.5605116 L8.1844746,13.82964 C7.92324638,13.5688264 7.4766705,13.7537594 7.4766705,14.1227961 L7.4766705,15.6632134 C5.76085717,15.6283829 4.37510362,14.2243849 4.37510362,12.4998639 C4.37510362,10.7537813 5.79527295,9.33361196 7.54135559,9.33361196 C9.28743823,9.33361196 10.7076076,10.7537813 10.7076076,12.4998639 C10.7076076,15.5558195 13.1938368,18.0412195 16.2489631,18.0412195 C19.3040894,18.0412195 21.7903187,15.5558195 21.7903187,12.4998639 C21.7903187,9.4575917 19.3252365,6.98214327 16.2879401,6.96099622"></path>
</svg>
