<svg viewBox="0 0 24 24" xmlns="http://www.w3.org/2000/svg" width="24">
  <path fill="white" d="M10.5185249,8.07655783 C11.4986338,7.89932294 12.4369362,8.01400434 13.2813041,8.58741134 C13.8338599,8.95230671 14.2301363,9.45273463 14.4907758,10.0574184 C14.5532251,10.1512486 14.5115227,10.2033765 14.38652,10.2346533 C13.7296041,10.4014626 13.2813041,10.5265696 12.634918,10.6932746 C12.4785343,10.7350812 12.4681087,10.7454025 12.3326804,10.5890188 C12.1762967,10.4118882 12.061511,10.2972068 11.8425738,10.1929509 C11.1858664,9.8697579 10.5498016,9.96348388 9.95554349,10.3493347 C9.24660392,10.8080603 8.88170856,11.4857231 8.8922384,12.3301952 C8.90255973,13.1642418 9.47596672,13.8522259 10.2996919,13.9670115 C11.0085272,14.0607375 11.6028897,13.8106278 12.0720408,13.2788189 C12.1657668,13.1642418 12.2492757,13.0390305 12.3535316,12.8931766 L12.3535316,12.8931766 L10.34129,12.8931766 C10.1223528,12.8931766 10.0702249,12.7575398 10.1433082,12.5804092 C10.2787365,12.2571119 10.5289505,11.7150859 10.6749086,11.4440208 C10.7061854,11.3814673 10.7791644,11.2772114 10.9355482,11.2772114 L10.9355482,11.2772114 L14.2920642,11.2772114 C14.4427139,10.7999283 14.6859427,10.3486049 15.0120549,9.92188581 C15.7731224,8.9209257 16.6904693,8.39964661 17.9312178,8.18081365 C18.9945229,7.99315318 19.995483,8.097409 20.9025086,8.71241407 C21.7260253,9.27549974 22.2369831,10.0365672 22.3724114,11.0374231 C22.5497506,12.4447724 22.1430486,13.5915863 21.1734695,14.5716953 C20.4854854,15.2702093 19.640909,15.7080837 18.6713299,15.9060655 C18.3898392,15.9581934 18.1083485,15.9687233 17.8372833,16 C16.8886596,15.9791488 16.0232321,15.7080837 15.2934414,15.0825488 C14.7798772,14.6385233 14.426867,14.0926398 14.2514045,13.4573049 C14.1293209,13.7039741 13.9835713,13.9403221 13.813113,14.1649933 C13.0624711,15.1554236 12.0823622,15.7706372 10.8417179,15.9373423 C9.82001092,16.0729791 8.87128298,15.874893 8.03723644,15.2493581 C7.26574338,14.6655255 6.82786895,13.8940325 6.71318755,12.9347747 C6.57765498,11.7984905 6.91137786,10.7767835 7.599362,9.88018349 C8.33957831,8.91060438 9.319583,8.2953908 10.5185249,8.07655783 Z M20.287295,11.4440208 C20.0997388,10.4118882 19.1509066,9.82805558 18.1604764,10.0574184 C17.1908973,10.2762513 16.5653623,10.8914649 16.3359995,11.8714696 C16.1483391,12.684665 16.5445112,13.5081817 17.2951531,13.8419046 C17.8685601,14.0921185 18.4419671,14.0607375 18.9945229,13.7793511 C19.8181439,13.351798 20.2664439,12.684665 20.3185718,11.7879607 C20.3082505,11.6525324 20.3082505,11.5482766 20.287295,11.4440208 Z M5.86877798,11.9548221 C5.9104803,11.9548221 5.93133147,11.9860989 5.93133147,12.0278012 L5.93133147,12.0278012 L5.9104803,12.2780152 C5.9104803,12.3197175 5.86877798,12.3509942 5.83750123,12.3509942 L5.83750123,12.3509942 L3.5647244,12.3405687 C3.52302207,12.3405687 3.51259649,12.3092919 3.53344765,12.2780152 L3.53344765,12.2780152 L3.6794058,12.0173756 C3.70025696,11.9860989 3.74195929,11.9548221 3.78366162,11.9548221 L3.78366162,11.9548221 Z M6.0981095,10.9956999 C6.13981183,10.9956999 6.16066299,11.0269766 6.15023741,11.0582534 L6.15023741,11.0582534 L6.06683275,11.3084673 C6.05640717,11.3501697 6.01470484,11.3710208 5.97300252,11.3710208 L5.97300252,11.3710208 L1.04170233,11.3814464 C1,11.3814464 0.989574418,11.3605952 1.01042558,11.3293185 L1.01042558,11.3293185 L1.2293628,11.0478278 C1.25021396,11.016551 1.30234187,10.9956999 1.3440442,10.9956999 L1.3440442,10.9956999 Z M6.6402606,10.0365255 C6.68196293,10.0365255 6.69238851,10.0678023 6.67153735,10.099079 L6.67153735,10.099079 L6.49430246,10.3701441 C6.47345129,10.4014209 6.42132339,10.4326976 6.39004664,10.4326976 L6.39004664,10.4326976 L2.61598603,10.422272 C2.5742837,10.422272 2.56385812,10.4014209 2.58470928,10.3701441 L2.58470928,10.3701441 L2.8036465,10.0886534 C2.82449767,10.0573767 2.87662557,10.0365255 2.9183279,10.0365255 L2.9183279,10.0365255 Z"></path>
</svg>
