<svg viewBox="0 0 32 32" xmlns="http://www.w3.org/2000/svg" width="22">
  <path transform="translate(2 -2)" fill="white" d="M7.605 24.737c-4.916 1.377 2.998 4.216 9.259 1.526-0.683-0.268-1.262-0.556-1.812-0.888l0.053 0.030c-2.797 0.53-4.089 0.572-6.621 0.275-2.108-0.222-0.879-0.943-0.879-0.943zM16.112 22.057c-3.697 0.71-5.837 0.689-8.549 0.413-2.098-0.212-0.72-1.229-0.72-1.229-5.413 1.801 3.019 3.835 10.583 1.621-0.51-0.186-0.948-0.46-1.316-0.807l0.002 0.002zM19.004 6.536s-10.954 2.733-5.721 8.761c1.547 1.78-0.403 3.379-0.403 3.379s3.92-2.023 2.119-4.555c-1.674-2.362-2.966-3.538 4.005-7.585zM21.568 27.332s0.9 0.742-0.996 1.324c-3.613 1.091-15.043 1.43-18.222 0.042-1.144-0.498 0.996-1.187 1.674-1.335 0.326-0.081 0.701-0.127 1.087-0.127 0.005 0 0.010 0 0.016 0h-0.001c-1.271-0.89-8.21 1.759-3.517 2.511 12.766 2.087 23.275-0.922 19.959-2.415zM17.182 19.556c0.417-0.276 0.897-0.538 1.399-0.759l0.063-0.025s-2.415 0.434-4.82 0.636c-2.945 0.244-6.102 0.297-7.691 0.085-3.75-0.498 2.055-1.886 2.055-1.886s-2.256-0.148-5.032 1.187c-3.284 1.6 8.126 2.32 14.026 0.763zM18.623 23.444c-0.032 0.061-0.071 0.113-0.117 0.159v0c8.020-2.108 5.064-7.426 1.239-6.081-0.211 0.077-0.385 0.213-0.506 0.389l-0.002 0.003c0.192-0.070 0.424-0.133 0.662-0.176l0.027-0.004c1.918-0.413 4.693 2.585-1.303 5.71zM11.843 17.554c-1.187-2.67-5.191-5.011 0-9.111 6.485-5.117 3.157-8.443 3.157-8.443 1.345 5.286-4.725 6.875-6.918 10.17-1.494 2.235 0.731 4.651 3.761 7.384zM18.835 30.818c-4.916 0.922-10.986 0.816-14.577 0.222 0 0 0.742 0.614 4.524 0.858 5.763 0.371 14.609-0.201 14.821-2.935 0 0-0.401 1.028-4.767 1.854z"></path>
</svg>
