<svg viewBox="0 0 24 24" xmlns="http://www.w3.org/2000/svg" width="24">
  <path fill="#fff" d="M17,20.4465 C17,21.0285 16.5285,21.5 15.9465,21.5 L7.5535,21.5 C6.9715,21.5 6.5,21.0285 6.5,20.4465 L6.5,4.554 C6.5,3.972 6.9715,3.5 7.5535,3.5 L9.19,3.5 C9.458,3.5 9.698,3.6655 9.7935,3.916 L9.842,4.0425 C9.9375,4.293 10.177,4.4585 10.4455,4.4585 L13.0545,4.4585 C13.323,4.4585 13.5625,4.293 13.658,4.0425 L13.7065,3.916 C13.802,3.6655 14.042,3.5 14.31,3.5 L15.9465,3.5 C16.5285,3.5 17,3.972 17,4.554 L17,20.4465 Z M15.8715,2 L7.6285,2 C6.177,2 5,3.177 5,4.629 L5,20.3715 C5,21.823 6.177,23 7.6285,23 L15.8715,23 C17.323,23 18.5,21.823 18.5,20.3715 L18.5,4.629 C18.5,3.177 17.323,2 15.8715,2 L15.8715,2 Z" transform="translate(0 -2)"></path>
</svg>
