<svg viewBox="0 0 24 24" xmlns="http://www.w3.org/2000/svg" width="24">
  <path fill="white" d="M2.22430297,14.7592814 L2.22430297,16 L1,16 L1,14.7592814 L2.22430297,14.7592814 Z M15.6448526,8 L15.6448526,8.83440376 L12.5753565,8.83440376 L12.5753565,11.4535962 L15.4193002,11.4535962 L15.4193002,12.288 L12.5753565,12.288 L12.5753565,15.0390986 L15.8258354,15.0390986 L15.8258354,15.8735023 L11.6531155,15.8735023 L11.6531155,8 L15.6448526,8 Z M22.1551649,8 L22.1551649,8.83440376 L19.8874216,8.83440376 L19.8874216,15.8735023 L18.96478,15.8735023 L18.96478,8.83440376 L16.6925296,8.83440376 L16.6925296,8 L22.1551649,8 Z M4.76552363,8.00004006 L8.99252833,14.6498304 L8.99252833,8.00004006 L9.90966135,8.00004006 L9.90966135,15.8735424 L8.79011205,15.8735424 L4.49069421,9.12009014 L4.49069421,15.8735424 L3.56785227,15.8735424 L3.56785227,8.00004006 L4.76552363,8.00004006 Z" transform="translate(0 0)"></path>
</svg>
