<svg viewBox="0 0 32 32" xmlns="http://www.w3.org/2000/svg" width="26">
  <path fill="#fff"
    d="M7.4,11.5c1.3,0,2.3,0.4,2.9,1.2c0.7,0.8,0.8,1.7,0.7,3c-0.1,0.5-0.2,1.2-0.5,1.7c-0.2,0.5-0.7,1.1-1.1,1.5 c-0.5,0.5-1.2,1-1.8,1.1c-0.7,0.1-1.3,0.2-2.1,0.2H3.4l-0.7,3.1H0.4l2.5-12h4.6V11.5z M27.9,11.5c1.3,0,2.3,0.4,2.9,1.2 c0.7,0.8,0.8,1.7,0.7,3c-0.1,0.5-0.2,1.2-0.5,1.7c-0.2,0.5-0.7,1.1-1.1,1.5c-0.5,0.5-1.2,1-1.8,1.1c-0.7,0.1-1.3,0.2-2.1,0.2h-2.1 l-0.7,3.1h-2.4l2.5-12h4.6V11.5z M16.3,8.5l-0.7,3.1h2.1c1.1,0,2,0.2,2.5,0.7c0.5,0.4,0.8,1.3,0.5,2.5l-1.1,5.5h-2.3l1.1-5.3 c0.1-0.5,0.1-1-0.1-1.2c-0.2-0.2-0.5-0.3-1.2-0.3h-1.8l-1.4,6.8h-2.3l2.4-12h2.3V8.5z M5.6,13.3c-0.1,0-0.2,0-0.4,0H4.8l-1,5 c0.1,0,0.1,0,0.2,0h0.2c1.1,0,2-0.1,2.7-0.3c0.8-0.2,1.2-1.1,1.5-2.5c0.2-1.2,0-1.8-0.7-2.1C7.2,13.4,6.5,13.3,5.6,13.3z M26.1,13.3 c-0.1,0-0.2,0-0.4,0h-0.3l-1,5c0.1,0,0.1,0,0.2,0h0.2c1.1,0,2-0.1,2.7-0.3c0.8-0.2,1.2-1.1,1.5-2.5c0.2-1.2,0-1.8-0.7-2.1 C27.7,13.4,27,13.3,26.1,13.3z"></path>
</svg>
