<svg viewBox="0 0 24 24" xmlns="http://www.w3.org/2000/svg" width="22">
  <path transform="translate(0 -2)" fill="#fff" d="M4.1890914,6.45488066 C5.57574748,3.57775978 8.65429539,1.66920294 12.1404592,2.04777147 C12.5328372,2.0901521 12.9152152,2.16681818 13.2890219,2.26634123 C13.2837838,2.28348396 13.2756887,2.29872194 13.2709268,2.31586466 L13.2709268,2.31586466 L12.866168,3.79394861 C12.822835,3.95204264 12.7214072,4.08537495 12.5699798,4.17585045 C12.4675996,4.23680237 12.3504576,4.26870689 12.2314109,4.26870689 C12.1747447,4.26870689 12.1185546,4.26156408 12.0642693,4.24727848 L12.0642693,4.24727848 L10.592852,3.86204333 C10.4504721,3.82442457 10.3033304,3.80585328 10.1566649,3.80585328 C9.54286003,3.80585328 8.97095963,4.13585076 8.66381912,4.66727527 L8.66381912,4.66727527 L8.16144201,5.53726862 C7.77430211,6.20773969 7.88430127,7.06059032 8.42858282,7.61106231 L8.42858282,7.61106231 L9.53857434,8.73343468 C9.66143055,8.85771945 9.67952565,9.04581325 9.67904946,9.16628852 C9.67952565,9.26771632 9.66143055,9.45676249 9.53857434,9.58057107 L9.53857434,9.58057107 L8.42858282,10.7034196 C7.88430127,11.2538916 7.77430211,12.1062661 8.16144201,12.7767371 L8.16144201,12.7767371 L8.66381912,13.6472067 C8.97095963,14.1786312 9.54286003,14.5086287 10.1566649,14.5086287 C10.3033304,14.5086287 10.4504721,14.4900574 10.5933282,14.4524386 L10.5933282,14.4524386 L12.1323641,14.0486322 C12.1680781,14.0395846 12.2056968,14.0348228 12.2437918,14.0348228 C12.3442672,14.0348228 12.4514092,14.0667273 12.5385514,14.119584 C12.545218,14.1238697 12.5852177,14.1472028 12.5918844,14.1514885 C12.7252167,14.2305355 12.8175969,14.3419633 12.85093,14.4648195 L12.85093,14.4648195 L13.271403,15.9990935 C13.4761633,16.7452782 14.1594914,17.2667028 14.9337712,17.2667028 L14.9337712,17.2667028 L15.9380493,17.2667028 C16.7123291,17.2667028 17.3956572,16.7452782 17.6008937,15.9986173 L17.6008937,15.9986173 L17.8504156,15.0862433 C17.8551775,15.1238621 17.8542251,15.161957 17.8608917,15.1995758 L17.8608917,15.1995758 L19.1204059,22 L9.1204823,22 L8.77096116,19.5514473 C8.62000993,18.4971696 7.71715969,17.7143185 6.65240592,17.7143185 L6.65240592,17.7143185 L6.64192981,17.7143185 C4.8548006,17.7143185 3.40624024,16.2657581 3.40624024,14.4786289 L3.40624024,14.4786289 L3.40624024,12.4619776 C3.40624024,12.2067415 3.19909896,12.0000764 2.94386282,12.0000764 L2.94386282,12.0000764 L2.73386442,12.0000764 C2.19720186,12.0000764 1.84244266,11.4419854 2.07005997,10.9553225 L2.07005997,10.9553225 Z M15.9381445,2.00010517 C16.2857609,2.00010517 16.5900443,2.23248435 16.6819483,2.56724369 L16.6819483,2.56724369 L17.0867072,4.04580383 C17.1948016,4.44056272 17.4519425,4.77817918 17.8038445,4.98770139 L17.8038445,4.98770139 L17.8143206,4.99389182 C18.1857464,5.2153187 18.6305049,5.27769918 19.0485969,5.16865239 L19.0485969,5.16865239 L20.5200143,4.78294105 C20.855726,4.69532268 21.2095328,4.84246441 21.3828648,5.14341449 L21.3828648,5.14341449 L21.8852419,6.01340784 C22.0590501,6.31435793 22.0100029,6.69435502 21.765719,6.94149599 L21.765719,6.94149599 L20.7076319,8.01148782 C20.4076342,8.31434265 20.2395402,8.72433951 20.2404926,9.15052673 L20.2404926,9.15052673 L20.2404926,9.16338378 C20.2395402,9.59004719 20.4076342,9.99956787 20.7076319,10.3028989 L20.7076319,10.3028989 L21.765719,11.3728907 C22.0100029,11.6200317 22.0590501,12.0000288 21.8852419,12.3009789 L21.8852419,12.3009789 L21.3828648,13.1709722 C21.2095328,13.4719223 20.855726,13.619064 20.5200143,13.5314456 L20.5200143,13.5314456 L18.9805022,13.1276392 C18.605267,13.0295447 18.2066986,13.086211 17.8743202,13.2847809 L17.8743202,13.2847809 L17.7952732,13.3319234 C17.4486092,13.5381123 17.1957539,13.8709669 17.0890881,14.2600115 L17.0890881,14.2600115 L16.6819483,15.747143 C16.5900443,16.0819024 16.2857609,16.3142815 15.9381445,16.3142815 L15.9381445,16.3142815 L14.9333903,16.3142815 C14.5862501,16.3142815 14.2814905,16.0819024 14.1895864,15.747143 L14.1895864,15.747143 L13.7695896,14.2133452 C13.6672095,13.83811 13.4119733,13.5300171 13.0767378,13.3319234 C13.0653093,13.3252567 13.054357,13.3185901 13.0434047,13.3119235 C12.6953121,13.1024013 12.2838867,13.0247829 11.8915087,13.1276392 L11.8915087,13.1276392 L10.3519967,13.5314456 C10.0158088,13.619064 9.66247816,13.4719223 9.48866996,13.1709722 L9.48866996,13.1709722 L8.98629285,12.3009789 C8.81248465,12.0000288 8.8615319,11.6200317 9.10581575,11.3728907 L9.10581575,11.3728907 L10.2158073,10.2505183 C10.500567,9.96242529 10.6329469,9.56861878 10.6315184,9.16338378 L10.6315184,9.16338378 L10.6315184,9.15052673 C10.6329469,8.74576792 10.500567,8.35196141 10.2158073,8.06386837 L10.2158073,8.06386837 L9.10581575,6.94149599 C8.8615319,6.69435502 8.81248465,6.31435793 8.98629285,6.01340784 L8.98629285,6.01340784 L9.48866996,5.14341449 C9.66247816,4.84246441 10.0158088,4.69532268 10.3519967,4.78294105 L10.3519967,4.78294105 L11.8229378,5.16865239 C12.2415061,5.27769918 12.6857884,5.2153187 13.0572141,4.99389182 L13.0572141,4.99389182 L13.0681664,4.98770139 C13.4200685,4.77817918 13.6767332,4.44056272 13.7848276,4.04580383 L13.7848276,4.04580383 L14.1895864,2.56724369 C14.2814905,2.23248435 14.5862501,2.00010517 14.9333903,2.00010517 L14.9333903,2.00010517 Z M15.4357674,7.05435227 C14.2748239,7.05435227 13.3329263,7.99577365 13.3329263,9.15719335 C13.3329263,10.3181369 14.2748239,11.2595582 15.4357674,11.2595582 C16.5971871,11.2595582 17.5386085,10.3181369 17.5386085,9.15719335 C17.5386085,7.99577365 16.5971871,7.05435227 15.4357674,7.05435227 Z"></path>
</svg>
