<svg viewBox="0 0 32 32" xmlns="http://www.w3.org/2000/svg" width="20">
  <path fill="#fff" d="M11.99 15.471h7.627c2.117 0 3.791-1.799 3.791-3.927v-7.262c0-2.072-1.73-3.62-3.802-3.973-1.139-0.197-2.45-0.309-3.788-0.309-0.065 0-0.13 0-0.195 0.001l0.010-0c-1.277 0.003-2.525 0.114-3.739 0.326l0.131-0.019c-3.233 0.569-3.779 1.764-3.779 3.973v2.823h7.578v1.047h-10.514c-2.22 0-4.166 1.332-4.769 3.87-0.706 2.903-0.729 4.69 0 7.718 0.546 2.254 1.833 3.836 4.052 3.836h2.595v-3.415c0.011-2.516 2.22-4.689 4.804-4.689zM11.512 5.249c-0.005 0-0.011 0-0.017 0-0.802 0-1.451-0.65-1.451-1.451s0.65-1.451 1.451-1.451c0.802 0 1.451 0.65 1.451 1.451 0 0.002 0 0.004 0 0.006v-0c0 0.002 0 0.005 0 0.008 0 0.793-0.642 1.436-1.434 1.438h-0zM31.068 12.022c-0.546-2.208-1.594-3.87-3.813-3.87h-2.789v3.392c0 2.629-2.299 4.713-4.838 4.713h-7.627c-2.083 0-3.745 1.912-3.745 4.007v7.274c0 2.072 1.764 3.29 3.779 3.882 2.413 0.706 4.701 0.842 7.593 0 1.924-0.558 3.791-1.673 3.791-3.882v-2.914h-7.596v-1.047h11.417c2.22 0 3.051-1.514 3.813-3.836 0.808-2.39 0.774-4.644 0.011-7.718zM20.094 26.558c0.005-0 0.011-0 0.017-0 0.802 0 1.451 0.65 1.451 1.451s-0.65 1.451-1.451 1.451c-0.802 0-1.451-0.65-1.451-1.451 0-0.002 0-0.004 0-0.006v0c0-0.002-0-0.005-0-0.008 0-0.793 0.642-1.436 1.434-1.438h0z"></path>
</svg>
