<svg viewBox="1 4 23 21" xmlns="http://www.w3.org/2000/svg" width="23">
  <path fill="#fff"
        d="M15.0061783,18.50377 L19.8796597,10.6303142 L22.6071441,10.6303142 L15.0061783,18.50377 Z M5.35591161,10.6303142 L10.326089,18.6601358 L2.40782906,10.6303142 L5.35591161,10.6303142 Z M7.2544322,4.84613504 L7.83723082,4.84613504 L8.01980609,7.24611248 L5.4168793,9.78417915 L2.40520679,9.78417915 L7.2544322,4.84613504 Z M17.0230286,9.78417915 L17.1334916,8.32984224 L18.6249054,9.78417915 L17.0230286,9.78417915 Z M16.8679871,10.6303142 L18.9071267,10.6303142 L14.2408044,18.1697159 L16.8679871,10.6303142 Z M8.36758412,10.6303142 L10.9947669,18.1697159 L6.32811673,10.6303142 L8.36758412,10.6303142 Z M8.21221486,9.78417915 L6.6106659,9.78417915 L8.10207968,8.32984224 L8.21221486,9.78417915 Z M9.23850421,10.6303142 L15.9970671,10.6303142 L12.6176217,20.3276987 L9.23850421,10.6303142 Z M14.7547685,4.84613504 L16.5762601,4.84613504 L16.4507191,6.49982137 L14.7547685,4.84613504 Z M8.7848522,6.49982137 L8.65931121,4.84613504 L10.4808027,4.84613504 L8.7848522,6.49982137 Z M11.6745893,4.84613504 L13.5609819,4.84613504 L16.3681177,7.58355113 L16.201276,9.78417915 L9.03429525,9.78417915 L8.86712579,7.58355113 L11.6745893,4.84613504 Z M22.5950161,9.78417915 L19.818692,9.78417915 L17.2157652,7.24611248 L17.3980127,4.84613504 L17.7454629,4.84613504 L22.5950161,9.78417915 Z M23.9733447,10.3680123 C23.9782614,10.3551511 23.978917,10.3419514 23.9825226,10.3290901 C23.9884227,10.3084444 23.9943228,10.2884756 23.9972728,10.267153 C24,10.2468458 24,10.2265386 24,10.2058929 C24,10.1855856 23.9995673,10.1656168 23.9969451,10.145648 C23.9936672,10.123987 23.9877671,10.1036797 23.9815392,10.0830341 C23.9779336,10.0705113 23.9776058,10.0573115 23.9723613,10.0451272 C23.9700668,10.0383581 23.9651501,10.0339582 23.9622,10.0271891 C23.9533499,10.0082357 23.942533,9.99131301 23.9310606,9.9737134 C23.9192604,9.95577534 23.907788,9.93817573 23.8936933,9.92260685 C23.8894322,9.91753004 23.8868099,9.91109941 23.8818931,9.90636106 L18.2014094,4.1221819 C18.1247081,4.04366057 18.0214564,4 17.9136157,4 L7.08627939,4 C6.97876649,4 6.87518698,4.04366057 6.7984857,4.1221819 L1.11832975,9.90636106 C1.11308522,9.91143787 1.11046296,9.91820695 1.10554621,9.92328376 C1.09177931,9.93919109 1.08063468,9.95645225 1.06883448,9.97405186 C1.05736207,9.99198992 1.04621744,10.0092511 1.03769507,10.028543 C1.03441724,10.035312 1.02950049,10.0403888 1.02687823,10.0474964 C1.02196148,10.0593423 1.02163369,10.0722035 1.01802808,10.0843879 C1.0118002,10.105372 1.00622788,10.1253408 1.00327783,10.1470019 C1.00032778,10.1673091 1,10.1872779 1,10.2075851 C1,10.2282308 1.00032778,10.2478612 1.00327783,10.2685069 C1.00655567,10.2898295 1.0118002,10.3097982 1.01802808,10.3304439 C1.02163369,10.3429667 1.02196148,10.355828 1.02687823,10.3680123 C1.02982828,10.3747814 1.03474502,10.3801967 1.03802286,10.3873042 C1.046873,10.4059192 1.05768985,10.4231803 1.06883448,10.4407799 C1.08063468,10.4583796 1.09210709,10.4756407 1.10620177,10.4915481 C1.11079074,10.4969633 1.11374079,10.5037324 1.11898532,10.5091477 L12.3304836,21.8788335 C12.3317947,21.8798488 12.3334337,21.8801873 12.334417,21.8812026 C12.3403171,21.8872948 12.3468728,21.8920332 12.3534284,21.8974484 C12.3606397,21.9042175 12.3681787,21.9099712 12.3760455,21.9160634 C12.3839123,21.922494 12.3921069,21.9272324 12.400957,21.9329861 C12.4147239,21.9417859 12.4288186,21.9502473 12.4435688,21.9573548 C12.4504523,21.9607393 12.4563524,21.9658161 12.4632358,21.9685238 C12.467497,21.970216 12.4724138,21.970216 12.4766749,21.9719083 L12.4799528,21.9729237 C12.4881474,21.9759698 12.4960142,21.9796928 12.5042087,21.9817235 C12.5183034,21.9861234 12.5330537,21.9881541 12.5478039,21.9908617 C12.5559985,21.992554 12.5635375,21.996277 12.5720599,21.9972924 C12.5871379,21.9989846 12.6025437,22 12.617294,22 L12.6176217,22 L12.6176217,22 L12.6179495,22 L12.6182773,22 C12.6330276,22 12.6484334,21.9989846 12.6635114,21.9972924 C12.671706,21.996277 12.679245,21.992554 12.6877674,21.9908617 C12.706451,21.9874772 12.7244791,21.9834158 12.7425072,21.977662 C12.7470961,21.9759698 12.7520129,21.9766467 12.7566018,21.9749544 C12.7588963,21.973939 12.7602075,21.9719083 12.7628297,21.970893 C12.7638131,21.9705545 12.7647964,21.9705545 12.7657798,21.970216 C12.7680743,21.9692007 12.7710243,21.9692007 12.7733188,21.9681853 C12.7798745,21.9654777 12.7854468,21.9604009 12.7920024,21.9573548 C12.8110139,21.9482165 12.8283864,21.9367091 12.8460867,21.9241863 C12.8585424,21.9157249 12.8706704,21.9076021 12.8821428,21.8974484 C12.8854207,21.8947408 12.8896818,21.8927101 12.8929597,21.889664 C12.893943,21.8886486 12.8952542,21.8883102 12.8962375,21.8872948 C12.898532,21.8849256 12.9001709,21.8815411 12.9027932,21.8795104 C12.9041043,21.8778181 12.9063988,21.8774796 12.9080377,21.8757874 L23.8841876,10.5061016 C23.8891044,10.5010248 23.8913989,10.4949326 23.8959878,10.4895173 C23.9097547,10.4742869 23.9205716,10.4570257 23.9317162,10.4394261 C23.9431886,10.4218265 23.954661,10.4045654 23.9631834,10.3856119 C23.9658057,10.3791813 23.9707224,10.374443 23.9733447,10.3680123 L23.9733447,10.3680123 Z"
        ></path>
</svg>
