<svg viewBox="0 0 32 32" xmlns="http://www.w3.org/2000/svg" width="24">
  <path fill="white" d="M0 8.151v15.688h16.342l15.688-15.688zM4.84 12.075c2.224 0 2.948 0.523 2.948 0.523s-0.392 0.976-0.594 1.499c-0.654-0.262-3.27-0.714-3.27 0.262 0 0.392 0.131 0.654 2.093 1.107 0.785 0.191 1.962 0.594 2.224 1.771l2.023-5.162h2.284l2.486 6.209v-6.209h2.938c1.623 0 2.938 1.316 2.938 2.938s-1.316 2.938-2.938 2.938h-0.976v1.962h-3.592l-0.392-1.177c-0.463 0.204-1.003 0.322-1.57 0.322s-1.107-0.118-1.595-0.332l0.026 0.010-0.392 1.177h-2.284l0.322-0.785c-0.584 0.453-1.499 0.785-2.677 0.785-2.153 0-2.878-0.594-2.878-0.594l0.523-1.701c1.238 0.785 3.462 0.654 3.462 0s-0.976-0.714-2.284-1.107c-1.248-0.392-1.701-1.369-1.701-2.224s0.654-2.214 2.878-2.214zM16.996 14.038v1.962h0.976c0.539 0 0.976-0.437 0.976-0.976s-0.437-0.976-0.976-0.976v0h-0.976zM11.441 14.299l-0.976 2.808c0.262 0.201 0.584 0.262 0.976 0.262s0.725-0.060 0.976-0.262z"></path>
</svg>
