<svg viewBox="0 0 24 24" xmlns="http://www.w3.org/2000/svg" width="24">
  <path fill="white"
        transform="translate(0 -1)"
        d="M17.9410676,14.7364097 C17.9415674,16.2775198 17.1200087,17.7016215 15.7854134,18.4721766 L14.0107866,19.472248 C12.7496965,20.1998 11.1960856,20.1998 9.93549553,19.472248 L8.1598687,18.4721766 C6.82627344,17.7006215 6.00521479,16.2770198 6.00470713,14.7364097 L6.00470713,8.18594185 C6.00271461,7.63590256 6.39424258,7.16236874 6.93528123,7.06086149 C7.84234602,6.89484963 8.73490977,6.65733267 9.60547195,6.35081077 C10.2570185,6.12329452 10.894564,5.85777556 11.5151084,5.55575398 C11.8021289,5.41474391 12.1386529,5.41474391 12.4256734,5.55575398 C13.0462177,5.85777556 13.6837633,6.12329452 14.3358098,6.35081077 C15.2053719,6.65733267 16.0984357,6.89484963 17.0060006,7.06086149 C17.5465392,7.16236874 17.9380671,7.63590256 17.935567,8.18594185 L17.9410676,14.7364097 Z M20.0512181,4.30566469 L19.6711909,4.30566469 C18.1905852,4.28716337 16.7234804,4.02214444 15.3303809,3.52060861 C14.3283093,3.16958354 13.3687408,2.70655047 12.4706766,2.14101007 C12.1741554,1.95299664 11.7961284,1.95299664 11.5006073,2.14101007 C10.5925425,2.70905065 9.6229732,3.17208372 8.60990084,3.52060861 C7.21930151,4.02314451 5.75369683,4.29016358 4.27459118,4.31066505 L3.93506693,4.31066505 C3.42703064,4.30266448 3.00800071,4.70769341 3,5.21572969 L3,5.21572969 L3,14.7164083 C2.9995001,17.330095 4.39259961,19.7447675 6.65526122,21.0518608 L8.42988798,22.0519323 C10.6190444,23.3160226 13.316737,23.3160226 15.5058934,22.0519323 L17.2810202,21.0518608 C19.5441819,19.7457676 20.9377814,17.330095 20.9357834,14.7164083 L20.9357834,5.21572969 C20.9332811,4.72419459 20.5427532,4.32166583 20.0512181,4.30566469 L20.0512181,4.30566469 Z"></path>
</svg>
