<svg viewBox="0 0 24 24" xmlns="http://www.w3.org/2000/svg" width="24">
  <path fill='white' d="M23.2545455,7.4040404 L23.2545455,7.4040404 C23.2545455,7.90774411 22.8424242,8.31986532 22.3387205,8.31986532 L18.3090909,8.31986532 C17.8053872,8.31986532 17.393266,7.90774411 17.393266,7.4040404 L17.393266,7.4040404 C17.393266,6.9003367 17.8053872,6.48821549 18.3090909,6.48821549 L22.3387205,6.48821549 C22.8424242,6.51111111 23.2545455,6.9003367 23.2545455,7.4040404 Z M22.3387205,10.1286195 L18.3090909,10.1286195 C17.8053872,10.1286195 17.393266,10.5407407 17.393266,11.0444444 L17.393266,11.0444444 C17.393266,11.5481481 17.8053872,11.9602694 18.3090909,11.9602694 L22.3387205,11.9602694 C22.8424242,11.9602694 23.2545455,11.5481481 23.2545455,11.0444444 C23.2545455,10.5407407 22.8424242,10.1286195 22.3387205,10.1286195 Z M22.3387205,13.7690236 L18.3090909,13.7690236 C17.8053872,13.7690236 17.393266,14.1811448 17.393266,14.6848485 L17.393266,14.6848485 C17.393266,15.1885522 17.8053872,15.6006734 18.3090909,15.6006734 L22.3387205,15.6006734 C22.8424242,15.6006734 23.2545455,15.1885522 23.2545455,14.6848485 L23.2545455,14.6848485 C23.2545455,14.1811448 22.8424242,13.7690236 22.3387205,13.7690236 Z M8.46397306,17.0888889 L2.99191919,17.0888889 C1.89292929,17.0888889 1,16.1959596 1,15.0969697 L1,6.99191919 C1,5.89292929 1.89292929,5 2.99191919,5 L13.752862,5 C14.8518519,5 15.7447811,5.89292929 15.7447811,6.99191919 L15.7447811,15.0969697 C15.7447811,16.1959596 14.8518519,17.0888889 13.752862,17.0888889 L11.7380471,17.0888889 L11.7380471,19.3784512 C11.7380471,19.7447811 11.3030303,19.9279461 11.0511785,19.6531987 L8.46397306,17.0888889 C8.46397306,17.0888889 8.46397306,17.0888889 8.46397306,17.0888889 Z M7.2962963,9.64781145 C7.45656566,9.64781145 7.59393939,9.55622896 7.63973064,9.3959596 C7.66262626,9.28148148 7.73131313,9.16700337 7.82289562,9.0983165 C7.96026936,8.98383838 8.12053872,8.91515152 8.32659933,8.91515152 C8.57845118,8.91515152 8.76161616,8.98383838 8.8989899,9.14410774 C9.03636364,9.28148148 9.10505051,9.48754209 9.10505051,9.73939394 C9.10505051,9.96835017 9.05925926,10.1973064 8.94478114,10.3804714 C8.83030303,10.5636364 8.67003367,10.7239057 8.46397306,10.8383838 C8.07474747,11.1131313 7.82289562,11.3420875 7.66262626,11.5481481 C7.54814815,11.7084175 7.47946128,11.9373737 7.45656566,12.2350168 C7.43367003,12.3723906 7.54814815,12.4868687 7.68552189,12.4868687 L8.71582492,12.4868687 C8.83030303,12.4868687 8.94478114,12.3952862 8.94478114,12.2808081 C8.96767677,12.1205387 8.99057239,12.0060606 9.03636364,11.9144781 C9.10505051,11.7771044 9.24242424,11.6397306 9.42558923,11.5023569 C9.76902357,11.3191919 10.043771,11.0902357 10.2727273,10.769697 C10.5016835,10.4491582 10.593266,10.1286195 10.593266,9.73939394 C10.593266,9.14410774 10.3872054,8.66329966 9.97508418,8.2969697 C9.56296296,7.93063973 9.01346801,7.77037037 8.3037037,7.77037037 C7.63973064,7.77037037 7.11313131,7.93063973 6.72390572,8.22828283 C6.38047138,8.5030303 6.17441077,8.89225589 6.15151515,9.3959596 C6.15151515,9.51043771 6.24309764,9.62491582 6.35757576,9.62491582 L7.2962963,9.64781145 Z M7.75420875,14.3414141 L8.6013468,14.3414141 C8.78451178,14.3414141 8.92188552,14.2040404 8.92188552,14.0208754 L8.92188552,13.4713805 C8.92188552,13.2882155 8.78451178,13.1508418 8.6013468,13.1508418 L7.75420875,13.1508418 C7.57104377,13.1508418 7.43367003,13.2882155 7.43367003,13.4713805 L7.43367003,13.9979798 C7.43367003,14.1811448 7.57104377,14.3414141 7.75420875,14.3414141 Z" transform="translate(0 0)"></path>
</svg>
