<svg viewBox="0 0 24 24" xmlns="http://www.w3.org/2000/svg" width="23">
  <path transform="translate(0 -1)" fill="#fff" d="M16.0828829,15.0524324 L14.6942342,12.9475676 L13.4628829,15.0524324 L12.0565766,15.0524324 L13.9954955,11.8996396 L12.0043243,8.88630631 L13.4628829,8.88630631 L14.8254054,10.9475676 L16.0392793,8.88630631 L17.4454054,8.88630631 L15.5153153,11.9868468 L17.5414414,15.0524324 L16.0828829,15.0524324 Z M11.3754955,12.5021622 C11.3754955,13.072973 11.2691892,13.5545946 11.0565766,13.9475676 C10.8441441,14.3407207 10.5500901,14.6333333 10.1745946,14.8252252 C9.7990991,15.0174775 9.37243243,15.1135135 8.89495495,15.1135135 C8.15567568,15.1135135 7.56468468,14.8922523 7.12216216,14.4497297 C6.67963964,14.0073874 6.45837838,13.3581982 6.45837838,12.5021622 L6.45837838,8.88630631 L7.68108108,8.88630631 L7.68108108,12.5021622 C7.68108108,12.9854054 7.78720721,13.3479279 8,13.5895495 C8.21225225,13.8313514 8.51945946,13.9520721 8.92126126,13.9520721 C9.31711712,13.9520721 9.62144144,13.8313514 9.83387387,13.5895495 C10.0464865,13.3479279 10.1527928,12.9854054 10.1527928,12.5021622 L10.1527928,8.88630631 L11.3754955,8.88630631 L11.3754955,12.5021622 Z M12,2 C6.47693694,2 2,6.47711712 2,12 C2,17.5227027 6.47693694,22 12,22 C17.5227027,22 22,17.5227027 22,12 C22,6.47711712 17.5227027,2 12,2 L12,2 Z"></path>
</svg>
